<svg width="610" height="143" viewBox="0 0 610 143" fill="none" xmlns="http://www.w3.org/2000/svg">
<rect width="610" height="142.938" fill="#2D2D2D"/>
<path d="M165.367 84.3125C164.867 91.9688 162.805 97.5938 159.18 101.188C155.555 104.75 150.539 106.531 144.133 106.531C137.539 106.531 132.336 104.047 128.523 99.0781C124.711 94.0781 122.789 87.2969 122.758 78.7344V63.9219C122.758 55.3281 124.695 48.5938 128.57 43.7188C132.477 38.8438 137.805 36.4062 144.555 36.4062C150.93 36.4062 155.867 38.2344 159.367 41.8906C162.867 45.5469 164.867 51.1562 165.367 58.7188H159.93C159.43 52.5312 157.961 48.1094 155.523 45.4531C153.117 42.7969 149.461 41.4688 144.555 41.4688C139.398 41.4688 135.383 43.3906 132.508 47.2344C129.633 51.0781 128.195 56.6562 128.195 63.9688V78.5938C128.195 85.8438 129.586 91.4844 132.367 95.5156C135.148 99.5469 139.07 101.562 144.133 101.562C149.445 101.562 153.289 100.234 155.664 97.5781C158.039 94.9219 159.461 90.5 159.93 84.3125H165.367Z" fill="#4ACAFD"/>
<path d="M177.461 102.172C177.461 101.047 177.805 100.109 178.492 99.3594C179.211 98.5781 180.195 98.1875 181.445 98.1875C182.695 98.1875 183.68 98.5781 184.398 99.3594C185.117 100.109 185.477 101.047 185.477 102.172C185.477 103.266 185.117 104.172 184.398 104.891C183.68 105.609 182.695 105.969 181.445 105.969C180.195 105.969 179.211 105.609 178.492 104.891C177.805 104.172 177.461 103.266 177.461 102.172Z" fill="#4ACAFD"/>
<path d="M232.727 86.5156H207.133L201.32 105.594H195.742L217.492 37.3438H222.461L244.211 105.594H238.633L232.727 86.5156ZM208.68 81.5H231.18L219.93 44.8906L208.68 81.5Z" fill="#4ACAFD"/>
<path d="M253.117 102.172C253.117 101.047 253.461 100.109 254.148 99.3594C254.867 98.5781 255.852 98.1875 257.102 98.1875C258.352 98.1875 259.336 98.5781 260.055 99.3594C260.773 100.109 261.133 101.047 261.133 102.172C261.133 103.266 260.773 104.172 260.055 104.891C259.336 105.609 258.352 105.969 257.102 105.969C255.852 105.969 254.867 105.609 254.148 104.891C253.461 104.172 253.117 103.266 253.117 102.172Z" fill="#4ACAFD"/>
<path d="M323.883 99.0781C321.602 102.016 318.727 104.234 315.258 105.734C311.789 107.203 307.992 107.938 303.867 107.938C296.867 107.938 291.367 105.594 287.367 100.906C283.367 96.2188 281.289 89.7188 281.133 81.4062V64.8125C281.133 56.0938 283.023 49.4219 286.805 44.7969C290.617 40.1406 296.039 37.8125 303.07 37.8125C309.352 37.8125 314.273 39.5469 317.836 43.0156C321.398 46.4844 323.398 51.4844 323.836 58.0156H318.492C317.93 52.7656 316.383 48.9375 313.852 46.5312C311.352 44.0938 307.773 42.875 303.117 42.875C297.555 42.875 293.383 44.7344 290.602 48.4531C287.852 52.1406 286.477 57.5625 286.477 64.7188V80.4688C286.477 87.5938 287.992 93.125 291.023 97.0625C294.086 101 298.367 102.969 303.867 102.969C309.836 102.969 314.711 101.078 318.492 97.2969V79.5312H303.539V74.5156H323.883V99.0781Z" fill="#8C95FF"/>
<path d="M343.992 107H338.742V35H343.992V107Z" fill="#8C95FF"/>
<path d="M356.461 79.0625C356.461 71.75 358.117 65.9688 361.43 61.7188C364.742 57.4688 369.258 55.3438 374.977 55.3438C380.727 55.3438 385.242 57.4375 388.523 61.625C391.836 65.8125 393.508 71.5781 393.539 78.9219V84.3125C393.539 91.75 391.867 97.5469 388.523 101.703C385.211 105.859 380.727 107.938 375.07 107.938C369.414 107.938 364.93 105.906 361.617 101.844C358.305 97.7812 356.586 92.1875 356.461 85.0625V79.0625ZM361.711 84.3125C361.711 90.1562 362.883 94.75 365.227 98.0938C367.602 101.438 370.883 103.109 375.07 103.109C379.352 103.109 382.617 101.5 384.867 98.2812C387.148 95.0625 388.305 90.4531 388.336 84.4531V79.0625C388.336 73.2188 387.148 68.625 384.773 65.2812C382.398 61.9062 379.133 60.2188 374.977 60.2188C370.945 60.2188 367.742 61.8594 365.367 65.1406C362.992 68.4219 361.773 72.9375 361.711 78.6875V84.3125Z" fill="#8C95FF"/>
<path d="M425.461 61.1562C424.211 60.9375 423.117 60.8281 422.18 60.8281C419.305 60.8281 416.883 61.8125 414.914 63.7812C412.977 65.75 411.602 68.4844 410.789 71.9844V107H405.586V56.2812H410.695L410.789 63.875C413.258 58.1875 417.133 55.3438 422.414 55.3438C423.789 55.3438 424.836 55.5469 425.555 55.9531L425.461 61.1562Z" fill="#8C95FF"/>
<path d="M440.461 107H435.211V56.2812H440.461V107ZM434.461 41.6562C434.461 40.5938 434.758 39.6875 435.352 38.9375C435.945 38.1875 436.789 37.8125 437.883 37.8125C438.977 37.8125 439.82 38.1875 440.414 38.9375C441.039 39.6875 441.352 40.5938 441.352 41.6562C441.352 42.7188 441.039 43.625 440.414 44.375C439.82 45.0938 438.977 45.4531 437.883 45.4531C436.789 45.4531 435.945 45.0938 435.352 44.375C434.758 43.625 434.461 42.7188 434.461 41.6562Z" fill="#8C95FF"/>
<path d="M481.711 107C481.242 105.375 480.93 103.031 480.773 99.9688C479.211 102.5 477.195 104.469 474.727 105.875C472.289 107.25 469.633 107.938 466.758 107.938C462.383 107.938 458.977 106.703 456.539 104.234C454.102 101.766 452.883 98.25 452.883 93.6875C452.883 88.7188 454.57 84.7812 457.945 81.875C461.352 78.9688 466.039 77.5 472.008 77.4688H480.727V70.3906C480.727 66.7656 479.82 64.1719 478.008 62.6094C476.227 61.0156 473.602 60.2188 470.133 60.2188C466.914 60.2188 464.273 61.1562 462.211 63.0312C460.148 64.9062 459.117 67.3281 459.117 70.2969L453.914 70.25C453.914 66.0938 455.477 62.5781 458.602 59.7031C461.727 56.7969 465.648 55.3438 470.367 55.3438C475.461 55.3438 479.32 56.625 481.945 59.1875C484.57 61.75 485.883 65.4844 485.883 70.3906V95.2812C485.883 100.25 486.336 103.969 487.242 106.438V107H481.711ZM467.414 102.922C470.477 102.922 473.18 102.125 475.523 100.531C477.898 98.9375 479.633 96.8125 480.727 94.1562V81.8281H472.477C467.727 81.8906 464.148 82.9531 461.742 85.0156C459.336 87.0469 458.133 89.7969 458.133 93.2656C458.133 99.7031 461.227 102.922 467.414 102.922Z" fill="#8C95FF"/>
</svg>
