<svg width="330" height="75" viewBox="0 0 330 75" fill="none" xmlns="http://www.w3.org/2000/svg">
<rect width="330" height="75" fill="#2D2D2D"/>
<path d="M93.0127 43.916C92.7523 47.9036 91.6781 50.8333 89.79 52.7051C87.902 54.5605 85.2897 55.4883 81.9531 55.4883C78.5189 55.4883 75.8089 54.1943 73.8232 51.6064C71.8376 49.0023 70.8366 45.4704 70.8203 41.0107V33.2959C70.8203 28.82 71.8294 25.3125 73.8477 22.7734C75.8822 20.2344 78.6572 18.9648 82.1729 18.9648C85.4932 18.9648 88.0648 19.917 89.8877 21.8213C91.7106 23.7256 92.7523 26.6471 93.0127 30.5859H90.1807C89.9202 27.3633 89.1553 25.0602 87.8857 23.6768C86.6325 22.2933 84.7282 21.6016 82.1729 21.6016C79.4873 21.6016 77.3958 22.6025 75.8984 24.6045C74.401 26.6064 73.6523 29.5117 73.6523 33.3203V40.9375C73.6523 44.7135 74.3766 47.6514 75.8252 49.751C77.2738 51.8506 79.3164 52.9004 81.9531 52.9004C84.7201 52.9004 86.722 52.2087 87.959 50.8252C89.196 49.4417 89.9365 47.1387 90.1807 43.916H93.0127ZM99.3115 53.2178C99.3115 52.6318 99.4906 52.1436 99.8486 51.7529C100.223 51.346 100.736 51.1426 101.387 51.1426C102.038 51.1426 102.55 51.346 102.925 51.7529C103.299 52.1436 103.486 52.6318 103.486 53.2178C103.486 53.7874 103.299 54.2594 102.925 54.6338C102.55 55.0081 102.038 55.1953 101.387 55.1953C100.736 55.1953 100.223 55.0081 99.8486 54.6338C99.4906 54.2594 99.3115 53.7874 99.3115 53.2178ZM128.096 45.0635H114.766L111.738 55H108.833L120.161 19.4531H122.749L134.077 55H131.172L128.096 45.0635ZM115.571 42.4512H127.29L121.431 23.3838L115.571 42.4512ZM138.716 53.2178C138.716 52.6318 138.895 52.1436 139.253 51.7529C139.627 51.346 140.14 51.1426 140.791 51.1426C141.442 51.1426 141.955 51.346 142.329 51.7529C142.703 52.1436 142.891 52.6318 142.891 53.2178C142.891 53.7874 142.703 54.2594 142.329 54.6338C141.955 55.0081 141.442 55.1953 140.791 55.1953C140.14 55.1953 139.627 55.0081 139.253 54.6338C138.895 54.2594 138.716 53.7874 138.716 53.2178Z" fill="#4ACAFD"/>
<path d="M173.354 50.874C172.166 52.404 170.669 53.5596 168.862 54.3408C167.056 55.1058 165.078 55.4883 162.93 55.4883C159.284 55.4883 156.419 54.2676 154.336 51.8262C152.253 49.3848 151.17 45.9993 151.089 41.6699V33.0273C151.089 28.4863 152.074 25.0114 154.043 22.6025C156.029 20.1774 158.853 18.9648 162.515 18.9648C165.786 18.9648 168.35 19.8682 170.205 21.6748C172.061 23.4814 173.102 26.0856 173.33 29.4873H170.547C170.254 26.7529 169.448 24.7591 168.13 23.5059C166.828 22.2363 164.964 21.6016 162.539 21.6016C159.642 21.6016 157.469 22.57 156.021 24.5068C154.588 26.4274 153.872 29.2513 153.872 32.9785V41.1816C153.872 44.8926 154.661 47.7734 156.24 49.8242C157.835 51.875 160.065 52.9004 162.93 52.9004C166.038 52.9004 168.577 51.9157 170.547 49.9463V40.6934H162.759V38.0811H173.354V50.874ZM183.828 55H181.094V17.5H183.828V55ZM190.322 40.4492C190.322 36.6406 191.185 33.6296 192.91 31.416C194.635 29.2025 196.987 28.0957 199.966 28.0957C202.961 28.0957 205.312 29.1862 207.021 31.3672C208.747 33.5482 209.618 36.5511 209.634 40.376V43.1836C209.634 47.0573 208.763 50.0765 207.021 52.2412C205.296 54.4059 202.961 55.4883 200.015 55.4883C197.069 55.4883 194.733 54.4303 193.008 52.3145C191.283 50.1986 190.387 47.2852 190.322 43.5742V40.4492ZM193.057 43.1836C193.057 46.2272 193.667 48.6198 194.888 50.3613C196.125 52.1029 197.834 52.9736 200.015 52.9736C202.244 52.9736 203.945 52.1354 205.117 50.459C206.305 48.7826 206.908 46.3818 206.924 43.2568V40.4492C206.924 37.4056 206.305 35.013 205.068 33.2715C203.831 31.5137 202.131 30.6348 199.966 30.6348C197.866 30.6348 196.198 31.4893 194.961 33.1982C193.724 34.9072 193.089 37.2591 193.057 40.2539V43.1836ZM226.26 31.123C225.609 31.0091 225.039 30.9521 224.551 30.9521C223.053 30.9521 221.792 31.4648 220.767 32.4902C219.757 33.5156 219.041 34.9398 218.618 36.7627V55H215.908V28.584H218.569L218.618 32.5391C219.904 29.5768 221.922 28.0957 224.673 28.0957C225.389 28.0957 225.934 28.2015 226.309 28.4131L226.26 31.123ZM234.072 55H231.338V28.584H234.072V55ZM230.947 20.9668C230.947 20.4134 231.102 19.9414 231.411 19.5508C231.72 19.1602 232.16 18.9648 232.729 18.9648C233.299 18.9648 233.739 19.1602 234.048 19.5508C234.373 19.9414 234.536 20.4134 234.536 20.9668C234.536 21.5202 234.373 21.9922 234.048 22.3828C233.739 22.7572 233.299 22.9443 232.729 22.9443C232.16 22.9443 231.72 22.7572 231.411 22.3828C231.102 21.9922 230.947 21.5202 230.947 20.9668ZM255.557 55C255.312 54.1536 255.15 52.9329 255.068 51.3379C254.255 52.6562 253.205 53.6816 251.919 54.4141C250.649 55.1302 249.266 55.4883 247.769 55.4883C245.49 55.4883 243.716 54.8454 242.446 53.5596C241.177 52.2738 240.542 50.4427 240.542 48.0664C240.542 45.4785 241.421 43.4277 243.179 41.9141C244.953 40.4004 247.394 39.6354 250.503 39.6191H255.044V35.9326C255.044 34.0446 254.572 32.6937 253.628 31.8799C252.7 31.0498 251.333 30.6348 249.526 30.6348C247.85 30.6348 246.475 31.123 245.4 32.0996C244.326 33.0762 243.789 34.3376 243.789 35.8838L241.079 35.8594C241.079 33.6947 241.893 31.8636 243.521 30.3662C245.148 28.8525 247.191 28.0957 249.648 28.0957C252.301 28.0957 254.312 28.763 255.679 30.0977C257.046 31.4323 257.729 33.3773 257.729 35.9326V48.8965C257.729 51.4844 257.965 53.4212 258.438 54.707V55H255.557ZM248.11 52.876C249.705 52.876 251.113 52.4609 252.334 51.6309C253.571 50.8008 254.474 49.694 255.044 48.3105V41.8896H250.747C248.273 41.9222 246.41 42.4756 245.156 43.5498C243.903 44.6077 243.276 46.04 243.276 47.8467C243.276 51.1995 244.888 52.876 248.11 52.876Z" fill="#8C95FF"/>
</svg>
