<svg width="610" height="137" viewBox="0 0 610 137" fill="none" xmlns="http://www.w3.org/2000/svg">
<rect width="610" height="137" fill="#242424"/>
<path d="M142.953 82.7188C142.172 89.9062 139.594 95.4062 135.219 99.2188C130.875 103.031 125.078 104.938 117.828 104.938C112.766 104.938 108.281 103.672 104.375 101.141C100.5 98.6094 97.5 95.0312 95.375 90.4062C93.25 85.75 92.1719 80.4375 92.1406 74.4688V65.6094C92.1406 59.5469 93.2031 54.1719 95.3281 49.4844C97.4531 44.7969 100.5 41.1875 104.469 38.6562C108.469 36.0938 113.062 34.8125 118.25 34.8125C125.562 34.8125 131.328 36.7969 135.547 40.7656C139.797 44.7031 142.266 50.1562 142.953 57.125H137.141C135.703 45.5313 129.406 39.7344 118.25 39.7344C112.062 39.7344 107.125 42.0469 103.438 46.6719C99.7812 51.2969 97.9531 57.6875 97.9531 65.8438V74.1875C97.9531 82.0625 99.7344 88.3438 103.297 93.0312C106.891 97.7188 111.734 100.062 117.828 100.062C123.859 100.062 128.406 98.625 131.469 95.75C134.531 92.8438 136.422 88.5 137.141 82.7188H142.953ZM155.141 100.625C155.141 99.5312 155.484 98.6094 156.172 97.8594C156.891 97.0781 157.875 96.6875 159.125 96.6875C160.375 96.6875 161.359 97.0781 162.078 97.8594C162.797 98.6094 163.156 99.5312 163.156 100.625C163.156 101.719 162.797 102.625 162.078 103.344C161.359 104.031 160.375 104.375 159.125 104.375C157.875 104.375 156.891 104.031 156.172 103.344C155.484 102.625 155.141 101.719 155.141 100.625ZM216.781 84.875H185.797L178.766 104H172.719L198.547 35.75H204.031L229.859 104H223.859L216.781 84.875ZM187.578 79.9531H214.953L201.266 42.7812L187.578 79.9531ZM238.109 100.625C238.109 99.5312 238.453 98.6094 239.141 97.8594C239.859 97.0781 240.844 96.6875 242.094 96.6875C243.344 96.6875 244.328 97.0781 245.047 97.8594C245.766 98.6094 246.125 99.5312 246.125 100.625C246.125 101.719 245.766 102.625 245.047 103.344C244.328 104.031 243.344 104.375 242.094 104.375C240.844 104.375 239.859 104.031 239.141 103.344C238.453 102.625 238.109 101.719 238.109 100.625Z" fill="#EBEBEB"/>
<path d="M335.516 95.8906C333.516 98.7344 330.375 100.953 326.094 102.547C321.844 104.141 317.078 104.938 311.797 104.938C306.453 104.938 301.703 103.656 297.547 101.094C293.391 98.5312 290.172 94.9062 287.891 90.2188C285.609 85.5312 284.453 80.1562 284.422 74.0938V65.4688C284.422 56 286.812 48.5312 291.594 43.0625C296.375 37.5625 302.797 34.8125 310.859 34.8125C317.891 34.8125 323.547 36.6094 327.828 40.2031C332.109 43.7656 334.656 48.6875 335.469 54.9688H329.703C328.859 49.9688 326.812 46.1875 323.562 43.625C320.344 41.0312 316.125 39.7344 310.906 39.7344C304.531 39.7344 299.484 42 295.766 46.5312C292.047 51.0625 290.188 57.4531 290.188 65.7031V73.7656C290.188 78.9531 291.062 83.5469 292.812 87.5469C294.594 91.5156 297.125 94.5938 300.406 96.7812C303.719 98.9688 307.516 100.062 311.797 100.062C316.766 100.062 321.031 99.2812 324.594 97.7188C326.906 96.6875 328.625 95.4844 329.75 94.1094V76.4844H311.422V71.6094H335.516V95.8906ZM356.844 104H351.219V32H356.844V104ZM369.031 77.8906C369.031 73.0156 369.969 68.625 371.844 64.7188C373.75 60.8125 376.422 57.7812 379.859 55.625C383.328 53.4375 387.25 52.3438 391.625 52.3438C398.375 52.3438 403.844 54.7188 408.031 59.4688C412.219 64.1875 414.312 70.4531 414.312 78.2656V79.4375C414.312 84.3438 413.359 88.7656 411.453 92.7031C409.578 96.6094 406.922 99.625 403.484 101.75C400.047 103.875 396.125 104.938 391.719 104.938C385 104.938 379.531 102.578 375.312 97.8594C371.125 93.1094 369.031 86.8281 369.031 79.0156V77.8906ZM374.656 79.4375C374.656 85.5 376.219 90.4844 379.344 94.3906C382.5 98.2656 386.625 100.203 391.719 100.203C396.781 100.203 400.875 98.2656 404 94.3906C407.156 90.4844 408.734 85.3438 408.734 78.9688V77.8906C408.734 74.0156 408.016 70.4688 406.578 67.25C405.141 64.0312 403.125 61.5469 400.531 59.7969C397.938 58.0156 394.969 57.125 391.625 57.125C386.625 57.125 382.547 59.0938 379.391 63.0312C376.234 66.9375 374.656 72.0625 374.656 78.4062V79.4375ZM449.375 58.0625C448.188 57.8438 446.922 57.7344 445.578 57.7344C442.078 57.7344 439.109 58.7188 436.672 60.6875C434.266 62.625 432.547 65.4531 431.516 69.1719V104H425.938V53.2812H431.422L431.516 61.3438C434.484 55.3438 439.25 52.3438 445.812 52.3438C447.375 52.3438 448.609 52.5469 449.516 52.9531L449.375 58.0625ZM464.562 104H458.938V53.2812H464.562V104ZM457.953 38.6094C457.953 37.5469 458.297 36.6562 458.984 35.9375C459.672 35.1875 460.609 34.8125 461.797 34.8125C462.984 34.8125 463.922 35.1875 464.609 35.9375C465.328 36.6562 465.688 37.5469 465.688 38.6094C465.688 39.6719 465.328 40.5625 464.609 41.2812C463.922 42 462.984 42.3594 461.797 42.3594C460.609 42.3594 459.672 42 458.984 41.2812C458.297 40.5625 457.953 39.6719 457.953 38.6094ZM511.859 104C511.297 102.406 510.938 100.047 510.781 96.9219C508.812 99.4844 506.297 101.469 503.234 102.875C500.203 104.25 496.984 104.938 493.578 104.938C488.703 104.938 484.75 103.578 481.719 100.859C478.719 98.1406 477.219 94.7031 477.219 90.5469C477.219 85.6094 479.266 81.7031 483.359 78.8281C487.484 75.9531 493.219 74.5156 500.562 74.5156H510.734V68.75C510.734 65.125 509.609 62.2812 507.359 60.2188C505.141 58.125 501.891 57.0781 497.609 57.0781C493.703 57.0781 490.469 58.0781 487.906 60.0781C485.344 62.0781 484.062 64.4844 484.062 67.2969L478.438 67.25C478.438 63.2188 480.312 59.7344 484.062 56.7969C487.812 53.8281 492.422 52.3438 497.891 52.3438C503.547 52.3438 508 53.7656 511.25 56.6094C514.531 59.4219 516.219 63.3594 516.312 68.4219V92.4219C516.312 97.3281 516.828 101 517.859 103.438V104H511.859ZM494.234 99.9688C497.984 99.9688 501.328 99.0625 504.266 97.25C507.234 95.4375 509.391 93.0156 510.734 89.9844V78.8281H500.703C495.109 78.8906 490.734 79.9219 487.578 81.9219C484.422 83.8906 482.844 86.6094 482.844 90.0781C482.844 92.9219 483.891 95.2812 485.984 97.1562C488.109 99.0312 490.859 99.9688 494.234 99.9688Z" fill="#2FB2D0"/>
</svg>
